<svg width="86" height="78" viewBox="0 0 86 78" fill="none" xmlns="http://www.w3.org/2000/svg">
<path d="M15 24L27.9904 31.5V46.5L15 54L2.00962 46.5V31.5L15 24Z" fill="#C07878"/>
<path d="M57 0L69.9904 7.5V22.5L57 30L44.0096 22.5V7.5L57 0Z" fill="#A96079"/>
<path d="M56 48L68.9904 55.5V70.5L56 78L43.0096 70.5V55.5L56 48Z" fill="#595959"/>
<path d="M71 24L83.9904 31.5V46.5L71 54L58.0096 46.5V31.5L71 24Z" fill="#CCD8E7"/>
<path d="M29 0L41.9904 7.5V22.5L29 30L16.0096 22.5V7.5L29 0Z" fill="#A5B592"/>
<path d="M29 48L41.9904 55.5V70.5L29 78L16.0096 70.5V55.5L29 48Z" fill="#B55475" fill-opacity="0.53"/>
</svg>
